<?xml version="1.0" encoding="UTF-8"?>
<svg version="1.1" xmlns="http://www.w3.org/2000/svg" width="512" height="512">
<path d="M0 0 C4.19933107 2.15021928 6.51066379 4.53199136 8 9 C8.11762201 11.13091056 8.1768694 13.26520525 8.20532227 15.39916992 C8.21522186 16.04334366 8.22512146 16.6875174 8.23532104 17.35121155 C8.26687467 19.4775934 8.29166905 21.60399758 8.31640625 23.73046875 C8.33698109 25.20592322 8.3579777 26.68137186 8.37937927 28.15681458 C8.43454526 32.03819051 8.48397862 35.91961915 8.53222656 39.80108643 C8.58248158 43.76262091 8.63814676 47.72407894 8.69335938 51.68554688 C8.80087399 59.45696649 8.90233377 67.22844972 9 75 C10.25358349 73.73960355 11.50716462 72.47920475 12.76073456 71.21879482 C13.82220033 70.15158154 14.88370889 69.08441083 15.94525909 68.01728153 C18.12845542 65.82252643 20.31141124 63.62754784 22.49194336 61.43014526 C27.98217895 55.89771126 33.47436875 50.46502541 39.40820312 45.40258789 C41.46803283 43.58759991 43.24091004 41.60462549 45 39.5 C49.98338532 33.77399255 55.61748575 27.4106169 63 25 C67.8718966 24.71808193 71.69814469 25.35880558 75.5625 28.4375 C78 31 78 31 78 33 C78.66 33 79.32 33 80 33 C81.96336447 36.69574488 82.33014491 39.76315692 81.66246033 43.90774536 C79.44400086 50.91432663 72.70406903 56.56145185 67.58984375 61.5703125 C66.89991837 62.25503632 66.20999298 62.93976013 65.49916077 63.64523315 C63.31671101 65.81003931 61.12763517 67.9679718 58.9375 70.125 C56.74469643 72.29004656 54.55343748 74.45660151 52.36512756 76.62619019 C51.01006188 77.96914372 49.65233281 79.30941715 48.29148865 80.64651489 C45.55367176 83.35553509 42.97864368 86.02626477 40.54516602 89.01904297 C35.89985608 94.45973691 30.75706323 98.55665518 24.6887207 102.31518555 C17.12508474 107.56556128 10.61561235 113.48049257 8.33873749 122.66840363 C5.62705754 138.83313551 6.64158649 155.65865667 7.09448242 171.97021484 C7.2502823 178.40585387 7.28468959 184.84209998 7.33007812 191.27929688 C7.43627109 203.85629959 7.67488486 216.42688136 8 229 C11.77189774 226.87688519 15.54233271 224.75118595 19.3125 222.625 C20.9202832 221.72007812 20.9202832 221.72007812 22.56054688 220.796875 C24.10258789 219.92675781 24.10258789 219.92675781 25.67578125 219.0390625 C26.62364502 218.50490723 27.57150879 217.97075195 28.5480957 217.42041016 C30.40444072 216.34501283 32.21496679 215.19002214 34 214 C34.99 214 35.98 214 37 214 C37 213.34 37 212.68 37 212 C62.08921104 197.45257227 62.08921104 197.45257227 70.05305481 193.06629944 C71.46285988 192.28397783 72.86771605 191.49258713 74.26472473 190.68763733 C78.14693015 188.47070795 81.99968716 186.55174608 86.14550781 184.87402344 C94.42094254 181.26566196 101.33539678 177.70636842 105.00854492 169.0847168 C107.41609162 162.00680873 108.93772176 154.75098814 110.4375 147.4375 C111.00562649 144.95322452 111.58175633 142.47076526 112.16601562 139.99023438 C113.01784007 136.35876911 113.86144589 132.72707014 114.66952515 129.08560181 C116.56857835 120.53848642 118.95282128 112.27565575 121.70727539 103.97094727 C123.71486695 97.91613034 125.19915128 91.72034445 126.6328125 85.5078125 C128.16858419 79.45298847 130.32384002 75.23003608 135 71 C138.69493043 69.15253479 142.95884604 69.6580562 147 70 C151.69058422 71.65039074 154.47379293 73.69609166 157 78 C158.5748389 84.58538853 157.6421249 90.2409623 155.921875 96.67578125 C155.69352966 97.57871414 155.46518433 98.48164703 155.22991943 99.41194153 C154.5011341 102.27858056 153.7511243 105.13914289 153 108 C152.52148696 109.86734326 152.04426163 111.735017 151.56835938 113.60302734 C150.38912819 118.21293732 149.18881089 122.8169859 147.97802734 127.41870117 C147.23316183 130.25153812 146.49336088 133.08566822 145.75390625 135.91992188 C145.27893953 137.73184785 144.80369061 139.54369987 144.328125 141.35546875 C143.99847748 142.61921577 143.99847748 142.61921577 143.66217041 143.90849304 C142.11510196 149.76979607 142.11510196 149.76979607 141 152 C141.85996582 151.50185791 141.85996582 151.50185791 142.73730469 150.99365234 C161.58605168 140.09494846 161.58605168 140.09494846 168.625 136.6875 C175.3560379 133.42223055 181.68267364 129.47951985 187.67578125 125 C193.82909285 120.58315115 198.47488294 118.99272734 206.10546875 119.4453125 C211.65736693 120.50923901 213.71990382 123.1225256 216.875 127.75 C218.33647788 131.97204722 218.7140859 135.58060172 218 140 C214.73694112 146.40526373 209.82072344 149.79902464 203.4453125 152.8125 C197.07124029 155.91856763 190.97698 159.39392666 184.875 163 C183.86824219 163.59039062 182.86148437 164.18078125 181.82421875 164.7890625 C178.87863605 166.51906838 175.93918422 168.25915258 173 170 C172.07864258 170.53882813 171.15728516 171.07765625 170.20800781 171.6328125 C169.33756836 172.14585937 168.46712891 172.65890625 167.5703125 173.1875 C166.80734863 173.63480469 166.04438477 174.08210937 165.25830078 174.54296875 C162.69106917 176.19931883 160.37361029 178.07912451 158 180 C158.74644775 180.19156677 159.49289551 180.38313354 160.26196289 180.58050537 C167.32558529 182.39502004 174.38686792 184.21827358 181.44573975 186.05117416 C185.07410811 186.99298958 188.70326169 187.9315037 192.33447266 188.86230469 C195.8443612 189.76213947 199.35184044 190.67086532 202.85787964 191.58557892 C204.19016905 191.9315414 205.52327089 192.27439199 206.85720825 192.61394501 C224.21806335 197.03858356 224.21806335 197.03858356 228.9375 202.0625 C231.425646 206.59970741 231.4837327 210.95535901 231 216 C229.4185631 220.19080779 227.47421969 223.15745661 224 226 C217.02438471 228.98954941 208.64751098 226.4202453 201.71875 224.55078125 C200.74699829 224.29628708 199.77524658 224.04179291 198.77404785 223.77958679 C196.72217428 223.24022513 194.67152879 222.69617214 192.62207031 222.14770508 C189.5397451 221.32313247 186.45396537 220.5128031 183.3671875 219.70507812 C173.41640312 217.08492953 163.55475419 214.30346989 153.75341797 211.17211914 C147.81913907 209.31895972 141.83527845 207.67436212 135.82299805 206.0949707 C134.46114407 205.73429025 133.10114225 205.36655564 131.74291992 204.99243164 C129.73465547 204.4395001 127.72194975 203.90700054 125.70703125 203.37890625 C124.5363208 203.0651001 123.36561035 202.75129395 122.15942383 202.42797852 C117.30195065 201.76998064 114.19169471 203.76767954 110.109375 206.171875 C109.40490234 206.58574463 108.70042969 206.99961426 107.97460938 207.42602539 C107.24048828 207.86293701 106.50636719 208.29984863 105.75 208.75 C104.98494141 209.20173584 104.21988281 209.65347168 103.43164062 210.11889648 C99.70882401 212.33140163 96.05135244 214.5807478 92.5 217.0625 C87.9738591 220.16294946 83.12358685 222.60705789 78.26245117 225.12792969 C71.8283014 228.49515535 65.56778645 232.12535309 59.3125 235.8125 C48.01278903 242.46877993 36.55492515 248.79904046 25 255 C25 255.66 25 256.32 25 257 C25.69859131 257.3717334 26.39718262 257.7434668 27.11694336 258.12646484 C41.8912381 266.00075021 56.55018346 273.98797442 70.83203125 282.734375 C75.13893972 285.36599781 79.45236206 287.74149232 84 289.9375 C87.8026334 291.80267 91.25937126 293.76475217 94.6875 296.25 C96.45533992 297.50422993 98.2266363 298.75359241 100 300 C100.61504395 300.44053711 101.23008789 300.88107422 101.86376953 301.33496094 C103.96440643 302.81157185 106.1008974 304.22006787 108.25 305.625 C108.90444092 306.09969727 109.55888184 306.57439453 110.2331543 307.06347656 C114.98000128 310.07180866 118.12873856 310.15496992 123.6171875 309.015625 C126.08527173 308.37049741 128.54626612 307.69772448 131 307 C133.45533602 306.37605502 135.9110677 305.75366501 138.3671875 305.1328125 C140.87074374 304.46711194 143.37334828 303.79782222 145.875 303.125 C147.10863281 302.79886719 148.34226562 302.47273438 149.61328125 302.13671875 C156.06620301 300.41101543 162.46105944 298.57002644 168.82421875 296.54296875 C176.70803208 294.03766686 184.65797621 291.84784478 192.66625977 289.77758789 C194.96339947 289.18077109 197.25593763 288.56799053 199.54882812 287.95507812 C217.28089755 283.30214888 217.28089755 283.30214888 223.875 286.3125 C224.57625 286.869375 225.2775 287.42625 226 288 C226.556875 288.4125 227.11375 288.825 227.6875 289.25 C231.08294256 293.77725674 231.50616113 299.53345977 231 305 C229.11652908 309.39476548 226.01060878 312.46677162 222 315 C218.41400527 316.3929133 214.73454942 317.28060408 211 318.1875 C208.70046415 318.77582017 206.40098901 319.36437764 204.1015625 319.953125 C202.8321582 320.27216797 201.56275391 320.59121094 200.25488281 320.91992188 C195.43925765 322.13531705 190.63755188 323.40243186 185.8359375 324.671875 C184.970755 324.90058792 184.10557251 325.12930084 183.21417236 325.36494446 C181.46958092 325.82626583 179.72501298 326.28767611 177.98046875 326.74917603 C173.78764963 327.85685307 169.59309861 328.95791625 165.3984375 330.05859375 C164.64968353 330.25511536 163.90092957 330.45163696 163.12948608 330.65411377 C161.41968193 331.10283605 159.70984508 331.55143372 158 332 C161.37009528 334.80771183 164.75708689 337.14222066 168.56640625 339.3125 C169.61973145 339.91707031 170.67305664 340.52164062 171.75830078 341.14453125 C173.36294189 342.06298828 173.36294189 342.06298828 175 343 C176.98977519 344.16411689 178.97808663 345.33073973 180.96484375 346.5 C182.95559973 347.66688751 184.94648694 348.83355117 186.9375 350 C187.98075439 350.61230469 189.02400879 351.22460938 190.09887695 351.85546875 C195.56528884 355.04942303 201.0513208 358.11757046 206.6875 361 C212.01829438 363.80381329 215.27209092 366.54418183 218 372 C218.88563587 378.09823559 217.88003967 382.1799405 214.484375 387.2734375 C211.93206362 390.24217863 210.06324087 391.79872807 206.15234375 392.5390625 C196.9402944 392.78531412 192.30193498 390.30692448 185 385 C182.74126011 383.57571636 180.47976191 382.17997615 178.1875 380.8125 C177.57729004 380.44560059 176.96708008 380.07870117 176.33837891 379.70068359 C168.67574258 375.13991006 160.81370382 370.93539478 152.96875 366.69921875 C148.94392144 364.52394571 144.96041107 362.29029266 141 360 C141.31710937 361.07507813 141.63421875 362.15015625 141.9609375 363.2578125 C145.33631501 374.82451898 148.52218729 386.44379756 151.63189697 398.08441162 C152.0821533 399.76515054 152.53551567 401.44506075 152.99212646 403.12408447 C159.4536225 426.92060991 159.4536225 426.92060991 156.875 433.9375 C154.27049626 438.19152278 151.72946813 440.42351062 147 442 C141.95502245 442.69677137 137.38554898 442.89263714 133.125 439.8125 C128.55640518 435.21188232 127.53148575 429.10719013 126 423 C125.40659195 420.81126661 124.79960049 418.62664255 124.18994141 416.44238281 C123.7920108 415.01231001 123.39913862 413.58081215 123.01318359 412.14746094 C122.06601637 408.66130317 121.07052241 405.21302196 119.93481445 401.7824707 C117.54682431 394.52418109 115.56113448 387.30823645 113.94377136 379.83638 C112.95966389 375.30986878 111.90545596 370.80058455 110.84985352 366.2902832 C110.32523412 363.97301088 109.83065694 361.6487308 109.36645508 359.31860352 C106.4874356 344.20484169 106.4874356 344.20484169 97.01123047 332.70458984 C91.59426016 329.23908212 85.88020948 326.57267102 80 324 C78.77127149 323.39590756 77.54731536 322.78186062 76.33154297 322.15209961 C74.45812137 321.18299715 72.5719226 320.23794855 70.67041016 319.32519531 C65.52880112 316.7736636 60.6244452 313.797571 55.6875 310.875 C53.62903847 309.66383775 51.5704481 308.45289445 49.51171875 307.2421875 C48.56216309 306.68241211 47.61260742 306.12263672 46.63427734 305.54589844 C43.43782479 303.67009329 40.22399034 301.82798888 37 300 C37 299.34 37 298.68 37 298 C36.12134277 297.73268066 35.24268555 297.46536133 34.33740234 297.18994141 C31.13678415 296.04877 28.50845003 294.70507002 25.6015625 292.9609375 C24.62832031 292.38085938 23.65507812 291.80078125 22.65234375 291.203125 C21.15380859 290.29820312 21.15380859 290.29820312 19.625 289.375 C18.60277344 288.76398438 17.58054687 288.15296875 16.52734375 287.5234375 C14.01507927 286.02077463 11.50614279 284.51284285 9 283 C8.36889585 296.74282688 7.89202256 310.48210973 7.60107136 324.23657703 C7.4612634 330.62742826 7.27248928 337.00824153 6.96313477 343.39331055 C4.24963625 375.33595421 4.24963625 375.33595421 16.67382717 403.3610754 C21.57222607 408.45908105 27.01437617 412.8907924 32.86711121 416.84550476 C37.33701541 419.91946875 41.52903839 423.16553587 44.95703125 427.40625 C48.3968019 431.43901933 52.10415848 435.13744185 55.88671875 438.84375 C56.51482452 439.4615332 57.1429303 440.07931641 57.79006958 440.71582031 C60.41809696 443.29887429 63.04815559 445.87957202 65.69262695 448.44580078 C67.64164004 450.34003002 69.57745086 452.24698116 71.51171875 454.15625 C72.39932137 455.00817932 72.39932137 455.00817932 73.30485535 455.87731934 C77.48249876 460.02852173 81.89912716 465.03154643 82.05595398 471.20129395 C81.74285792 473.99680706 81.26321019 476.47357963 80 479 C79.34 479 78.68 479 78 479 C77.814375 479.5775 77.62875 480.155 77.4375 480.75 C75.31463249 484.07274914 72.64151597 485.7188548 69 487 C64.50899571 487.7442719 61.27919463 486.79559666 57.4375 484.40625 C51.25778508 479.59182094 45.96344878 473.97741639 40.76660156 468.13793945 C38.12721455 465.18781311 35.44607664 462.46554802 32.42260742 459.90673828 C27.37567857 455.52936984 22.69839261 450.80780436 18 446.0625 C17.12988281 445.18787109 16.25976562 444.31324219 15.36328125 443.41210938 C13.23986451 441.27702551 11.11883622 439.13962795 9 437 C8.99413376 437.81574997 8.98826752 438.63149994 8.98222351 439.4719696 C8.92427179 447.1671613 8.8521812 454.86203013 8.76428509 462.5569334 C8.71959545 466.51278832 8.68033643 470.46854058 8.65356445 474.42456055 C8.62751711 478.24378758 8.58710515 482.0626193 8.53681374 485.88160133 C8.52015458 487.33715706 8.50863435 488.79278116 8.50238609 490.24841881 C8.49273415 492.29062518 8.46466477 494.33182247 8.43237305 496.3737793 C8.41571846 498.11584908 8.41571846 498.11584908 8.39872742 499.89311218 C7.81038613 504.4774731 5.94941301 507.04401666 2.7421875 510.2734375 C-2.39042544 513.50508268 -8.16899285 512.90377263 -14 512 C-18.19933107 509.84978072 -20.51066379 507.46800864 -22 503 C-22.11762201 500.86908944 -22.1768694 498.73479475 -22.20532227 496.60083008 C-22.21522186 495.95665634 -22.22512146 495.3124826 -22.23532104 494.64878845 C-22.26687467 492.5224066 -22.29166905 490.39600242 -22.31640625 488.26953125 C-22.33698109 486.79407678 -22.3579777 485.31862814 -22.37937927 483.84318542 C-22.43454526 479.96180949 -22.48397862 476.08038085 -22.53222656 472.19891357 C-22.58248158 468.23737909 -22.63814676 464.27592106 -22.69335938 460.31445312 C-22.80087399 452.54303351 -22.90233377 444.77155028 -23 437 C-23.71542969 437.7206665 -24.43085938 438.44133301 -25.16796875 439.18383789 C-27.85657884 441.89072912 -30.54864562 444.59416099 -33.24169922 447.29663086 C-34.40050319 448.46042274 -35.55840322 449.62511549 -36.71533203 450.79077148 C-42.46111359 456.57876492 -48.18619789 462.29144662 -54.39892578 467.58374023 C-56.62300401 469.5510897 -58.52478268 471.73307577 -60.4375 474 C-71.00244049 485.86970158 -71.00244049 485.86970158 -78.625 487.1875 C-83.45327365 487.37352806 -86.18187296 485.88307552 -90 483 C-91.4375 480.75 -91.4375 480.75 -92 479 C-92.66 479 -93.32 479 -94 479 C-95.98463655 474.21352362 -96.38521163 471.02139215 -95 466 C-91.32861426 460.13079216 -86.50972587 455.2482089 -81.58984375 450.4296875 C-80.89991837 449.74496368 -80.20999298 449.06023987 -79.49916077 448.35476685 C-77.31671101 446.18996069 -75.12763517 444.0320282 -72.9375 441.875 C-70.74469643 439.70995344 -68.55343748 437.54339849 -66.36512756 435.37380981 C-65.01006188 434.03085628 -63.65233281 432.69058285 -62.29148865 431.35348511 C-59.55367176 428.64446491 -56.97864368 425.97373523 -54.54516602 422.98095703 C-49.89442966 417.53390754 -44.75263292 413.43840198 -38.67114258 409.68481445 C-31.10346235 404.44663607 -24.57507014 398.53939895 -22.35729218 389.33159637 C-19.76765606 373.15148222 -20.95033855 356.33017251 -21.55804443 340.02978516 C-21.7748514 333.59488072 -21.86919158 327.15822509 -21.97460938 320.72070312 C-22.19825989 308.14254423 -22.55549069 295.5721593 -23 283 C-23.48650528 283.28656464 -23.97301056 283.57312927 -24.47425842 283.86837769 C-26.70271784 285.18077529 -28.93143496 286.49273466 -31.16015625 287.8046875 C-31.92541626 288.25545654 -32.69067627 288.70622559 -33.47912598 289.1706543 C-48.48095034 298 -48.48095034 298 -51 298 C-51 298.66 -51 299.32 -51 300 C-51.6077124 300.34144043 -52.2154248 300.68288086 -52.84155273 301.03466797 C-63.04802867 306.77382793 -73.24955011 312.51177502 -83.3125 318.5 C-87.52250243 321.00349593 -91.71043616 323.43108211 -96.125 325.5625 C-97.17953369 326.11043213 -97.17953369 326.11043213 -98.25537109 326.66943359 C-101 328 -101 328 -104.47387695 329.24438477 C-110.02413354 331.53086352 -114.53460962 334.17205536 -117.36853027 339.64102173 C-120.42759293 347.64872434 -122.19800744 356.02673323 -124.0625 364.375 C-124.66035231 366.87245625 -125.2638284 369.36857326 -125.87304688 371.86328125 C-126.76458116 375.51880435 -127.65161678 379.17470611 -128.51480103 382.83703613 C-130.53789965 391.38131868 -132.97424496 399.70029697 -135.72045898 408.03564453 C-137.71096129 414.09201677 -139.19997006 420.28320357 -140.6328125 426.4921875 C-142.16858419 432.54701153 -144.32384002 436.76996392 -149 441 C-152.69493043 442.84746521 -156.95884604 442.3419438 -161 442 C-165.69058422 440.34960926 -168.47379293 438.30390834 -171 434 C-172.56140458 427.44459124 -171.66264668 421.80316303 -169.95703125 415.39453125 C-169.61621269 414.04353081 -169.61621269 414.04353081 -169.26850891 412.66523743 C-168.53135822 409.77149825 -167.76912961 406.88539336 -167 404 C-166.74619568 403.03978943 -166.49239136 402.07957886 -166.230896 401.090271 C-164.42454595 394.277812 -162.56220853 387.48140746 -160.6875 380.6875 C-160.13183807 378.66350021 -159.57649819 376.63941198 -159.02148438 374.61523438 C-157.6846776 369.74246815 -156.34359647 364.87089822 -155 360 C-155.57854736 360.33209473 -156.15709473 360.66418945 -156.75317383 361.00634766 C-175.74364559 371.90069251 -175.74364559 371.90069251 -182.0625 375.3125 C-190.33526769 379.7832033 -198.43985674 384.45904362 -206.16015625 389.8359375 C-210.98542492 392.88886757 -216.49928046 392.4361804 -222 392 C-226.64114744 390.22253928 -228.53271738 387.22962735 -231 383 C-232.24266632 379.27200105 -232.52902513 375.87217006 -232 372 C-228.67878912 365.60359386 -223.84290125 362.21145818 -217.4453125 359.1875 C-211.07124029 356.08143237 -204.97698 352.60607334 -198.875 349 C-197.36486328 348.11441406 -197.36486328 348.11441406 -195.82421875 347.2109375 C-192.87863605 345.48093162 -189.93918422 343.74084742 -187 342 C-186.07864258 341.46117187 -185.15728516 340.92234375 -184.20800781 340.3671875 C-182.90234863 339.59761719 -182.90234863 339.59761719 -181.5703125 338.8125 C-180.80734863 338.36519531 -180.04438477 337.91789062 -179.25830078 337.45703125 C-176.69106917 335.80068117 -174.37361029 333.92087549 -172 332 C-173.12633347 331.70931892 -173.12633347 331.70931892 -174.27542114 331.4127655 C-181.36849882 329.58092173 -188.4598463 327.74258239 -195.54936409 325.89701366 C-199.19378145 324.94852825 -202.83880478 324.00252433 -206.48535156 323.06225586 C-210.00766543 322.15392236 -213.52820454 321.23898685 -217.04763412 320.31954384 C-218.38736338 319.97076469 -219.72770434 319.62432618 -221.06866837 319.28032494 C-222.95381889 318.79628576 -224.83658051 318.30297192 -226.71923828 317.80932617 C-227.78957306 317.53174973 -228.85990784 317.25417328 -229.962677 316.96818542 C-235.83293563 315.09696565 -239.92925956 312.65227479 -244 308 C-245.92168441 302.23494676 -245.18053705 297.29437319 -242.921875 291.796875 C-241.00590015 288.06234774 -238.9326824 286.31089413 -235 285 C-228.22050307 284.34321595 -222.12916118 285.68329868 -215.62109375 287.44921875 C-214.65075699 287.70371292 -213.68042023 287.95820709 -212.68067932 288.22041321 C-210.63463033 288.7592123 -208.58995872 289.30326652 -206.54663086 289.85229492 C-203.47342392 290.67784976 -200.39646658 291.48785267 -197.31835938 292.29492188 C-187.38530004 294.91603363 -177.54121698 297.70296624 -167.75561523 300.82788086 C-161.82037956 302.68025468 -155.83594318 304.32546326 -149.82299805 305.9050293 C-148.46114407 306.26570975 -147.10114225 306.63344436 -145.74291992 307.00756836 C-143.73465547 307.5604999 -141.72194975 308.09299946 -139.70703125 308.62109375 C-138.5363208 308.9348999 -137.36561035 309.24870605 -136.15942383 309.57202148 C-131.30195065 310.23001936 -128.19169471 308.23232046 -124.109375 305.828125 C-123.40490234 305.41425537 -122.70042969 305.00038574 -121.97460938 304.57397461 C-121.24048828 304.13706299 -120.50636719 303.70015137 -119.75 303.25 C-118.98494141 302.79826416 -118.21988281 302.34652832 -117.43164062 301.88110352 C-113.70882401 299.66859837 -110.05135244 297.4192522 -106.5 294.9375 C-102.64605553 292.29751148 -98.57813482 290.14792128 -94.4375 288 C-81.22096462 281.14319958 -68.42154456 273.50082699 -55.69140625 265.78515625 C-51.98524737 263.55629555 -48.26050465 261.52257204 -44.375 259.625 C-42.83972656 258.87089844 -42.83972656 258.87089844 -41.2734375 258.1015625 C-40.14808594 257.55628906 -40.14808594 257.55628906 -39 257 C-39 256.34 -39 255.68 -39 255 C-39.69859131 254.6282666 -40.39718262 254.2565332 -41.11694336 253.87353516 C-55.8912381 245.99924979 -70.55018346 238.01202558 -84.83203125 229.265625 C-89.13893972 226.63400219 -93.45236206 224.25850768 -98 222.0625 C-101.8026334 220.19733 -105.25937126 218.23524783 -108.6875 215.75 C-110.45533992 214.49577007 -112.2266363 213.24640759 -114 212 C-114.61504395 211.55946289 -115.23008789 211.11892578 -115.86376953 210.66503906 C-117.96440643 209.18842815 -120.1008974 207.77993213 -122.25 206.375 C-122.90444092 205.90030273 -123.55888184 205.42560547 -124.2331543 204.93652344 C-128.98000128 201.92819134 -132.12873856 201.84503008 -137.6171875 202.984375 C-140.08527173 203.62950259 -142.54626612 204.30227552 -145 205 C-147.45533602 205.62394498 -149.9110677 206.24633499 -152.3671875 206.8671875 C-154.87074374 207.53288806 -157.37334828 208.20217778 -159.875 208.875 C-161.10863281 209.20113281 -162.34226562 209.52726563 -163.61328125 209.86328125 C-170.06508181 211.58868473 -176.45849738 213.42963693 -182.8203125 215.45703125 C-190.72224879 217.96887904 -198.69301623 220.15260762 -206.72119141 222.22241211 C-209.02907502 222.82002885 -211.33276177 223.43236381 -213.63671875 224.04492188 C-215.13257933 224.4331911 -216.62866526 224.8205934 -218.125 225.20703125 C-218.79909912 225.38820999 -219.47319824 225.56938873 -220.16772461 225.75605774 C-226.46286848 227.34856529 -233.11206971 228.27107238 -239 225 C-242.99959678 221.91459677 -244.00539711 218.89013089 -245 214 C-245.43575391 208.94525463 -245.17009603 206.01545497 -242 202 C-236.9111815 196.8702746 -231.92627766 195.49447345 -225 193.8125 C-222.70046415 193.22417983 -220.40098901 192.63562236 -218.1015625 192.046875 C-216.8321582 191.72783203 -215.56275391 191.40878906 -214.25488281 191.08007812 C-209.43925765 189.86468295 -204.63755188 188.59756814 -199.8359375 187.328125 C-198.53816376 186.98505562 -198.53816376 186.98505562 -197.21417236 186.63505554 C-195.46958092 186.17373417 -193.72501298 185.71232389 -191.98046875 185.25082397 C-187.78764963 184.14314693 -183.59309861 183.04208375 -179.3984375 181.94140625 C-178.64968353 181.74488464 -177.90092957 181.54836304 -177.12948608 181.34588623 C-175.41968193 180.89716395 -173.70984508 180.44856628 -172 180 C-175.37009528 177.19228817 -178.75708689 174.85777934 -182.56640625 172.6875 C-183.61973145 172.08292969 -184.67305664 171.47835937 -185.75830078 170.85546875 C-186.82806152 170.24316406 -187.89782227 169.63085938 -189 169 C-190.98977519 167.83588311 -192.97808663 166.66926027 -194.96484375 165.5 C-196.95559973 164.33311249 -198.94648694 163.16644883 -200.9375 162 C-201.98075439 161.38769531 -203.02400879 160.77539062 -204.09887695 160.14453125 C-209.56528884 156.95057697 -215.0513208 153.88242954 -220.6875 151 C-226.01829438 148.19618671 -229.27209092 145.45581817 -232 140 C-232.88563587 133.90176441 -231.88003967 129.8200595 -228.484375 124.7265625 C-225.91265476 121.7352458 -224.07301856 120.18756016 -220.1171875 119.49609375 C-211.63116967 119.34273198 -206.77933502 121.01250942 -200 126 C-198.54605989 126.98567826 -197.08775513 127.96495134 -195.625 128.9375 C-194.89152344 129.43121094 -194.15804687 129.92492187 -193.40234375 130.43359375 C-185.9000312 135.32534551 -178.08364392 139.51197322 -170.046875 143.4453125 C-164.90131527 146.07086734 -159.95340943 149.0314674 -155 152 C-155.67693137 149.47647127 -156.35449436 146.9531143 -157.03271484 144.42993164 C-157.64475161 142.1520517 -158.25572486 139.87388579 -158.86572266 137.59545898 C-160.48568636 131.56067127 -162.12363445 125.53226879 -163.81428528 119.51686096 C-164.63775229 116.58581996 -165.45439566 113.65289204 -166.27102661 110.71994019 C-166.66950379 109.29654855 -167.07134996 107.87409519 -167.47677612 106.45266724 C-173.52919926 85.21982798 -173.52919926 85.21982798 -170.875 78.0625 C-168.27049626 73.80847722 -165.72946813 71.57648938 -161 70 C-155.95502245 69.30322863 -151.38554898 69.10736286 -147.125 72.1875 C-142.55640518 76.78811768 -141.53148575 82.89280987 -140 89 C-139.40659195 91.18873339 -138.79960049 93.37335745 -138.18994141 95.55761719 C-137.7920108 96.98768999 -137.39913862 98.41918785 -137.01318359 99.85253906 C-136.06601637 103.33869683 -135.07052241 106.78697804 -133.93481445 110.2175293 C-131.54682431 117.47581891 -129.56113448 124.69176355 -127.94377136 132.16362 C-126.95966389 136.69013122 -125.90545596 141.19941545 -124.84985352 145.7097168 C-124.32523412 148.02698912 -123.83065694 150.3512692 -123.36645508 152.68139648 C-120.4874356 167.79515831 -120.4874356 167.79515831 -111.01123047 179.29541016 C-105.59426016 182.76091788 -99.88020948 185.42732898 -94 188 C-92.77127149 188.60409244 -91.54731536 189.21813938 -90.33154297 189.84790039 C-88.45812137 190.81700285 -86.5719226 191.76205145 -84.67041016 192.67480469 C-79.52880112 195.2263364 -74.6244452 198.202429 -69.6875 201.125 C-67.62903847 202.33616225 -65.5704481 203.54710555 -63.51171875 204.7578125 C-62.56216309 205.31758789 -61.61260742 205.87736328 -60.63427734 206.45410156 C-57.43782479 208.32990671 -54.22399034 210.17201112 -51 212 C-51 212.66 -51 213.32 -51 214 C-50.12134277 214.26731934 -49.24268555 214.53463867 -48.33740234 214.81005859 C-45.13678415 215.95123 -42.50845003 217.29492998 -39.6015625 219.0390625 C-38.62832031 219.61914062 -37.65507812 220.19921875 -36.65234375 220.796875 C-35.65332031 221.40015625 -34.65429688 222.0034375 -33.625 222.625 C-32.60277344 223.23601562 -31.58054688 223.84703125 -30.52734375 224.4765625 C-28.01507927 225.97922537 -25.50614279 227.48715715 -23 229 C-22.36889585 215.25717312 -21.89202256 201.51789027 -21.60107136 187.76342297 C-21.4612634 181.37257174 -21.27248928 174.99175847 -20.96313477 168.60668945 C-18.24963625 136.66404579 -18.24963625 136.66404579 -30.67382717 108.6389246 C-35.57222607 103.54091895 -41.01437617 99.1092076 -46.86711121 95.15449524 C-51.33701541 92.08053125 -55.52903839 88.83446413 -58.95703125 84.59375 C-62.3968019 80.56098067 -66.10415848 76.86255815 -69.88671875 73.15625 C-70.51482452 72.5384668 -71.1429303 71.92068359 -71.79006958 71.28417969 C-74.41809696 68.70112571 -77.04815559 66.12042798 -79.69262695 63.55419922 C-81.64164004 61.65996998 -83.57745086 59.75301884 -85.51171875 57.84375 C-86.10345383 57.27579712 -86.6951889 56.70784424 -87.30485535 56.12268066 C-91.48249876 51.97147827 -95.89912716 46.96845357 -96.05595398 40.79870605 C-95.74285792 38.00319294 -95.26321019 35.52642037 -94 33 C-93.34 33 -92.68 33 -92 33 C-91.814375 32.4225 -91.62875 31.845 -91.4375 31.25 C-89.31890502 27.9339383 -86.64485978 26.2611492 -83 25 C-78.76884676 24.46921017 -75.44743537 25.01714036 -71.89453125 27.4296875 C-69.8455515 29.21313216 -67.9263452 31.08552141 -66 33 C-64.82032642 33.98858174 -63.63309911 34.96823926 -62.4375 35.9375 C-60.00419626 38.011524 -57.92936158 40.17692784 -55.875 42.625 C-52.3847456 46.72662934 -48.49175381 50.30416627 -44.50497437 53.90786743 C-39.71448848 58.26941032 -35.12371927 62.81055969 -30.55859375 67.40625 C-29.46170227 68.50694824 -29.46170227 68.50694824 -28.34265137 69.62988281 C-26.56046032 71.41862871 -24.779607 73.20868388 -23 75 C-22.99413376 74.18425003 -22.98826752 73.36850006 -22.98222351 72.5280304 C-22.92427179 64.8328387 -22.8521812 57.13796987 -22.76428509 49.4430666 C-22.71959545 45.48721168 -22.68033643 41.53145942 -22.65356445 37.57543945 C-22.62751711 33.75621242 -22.58710515 29.9373807 -22.53681374 26.11839867 C-22.52015458 24.66284294 -22.50863435 23.20721884 -22.50238609 21.75158119 C-22.49273415 19.70937482 -22.46466477 17.66817753 -22.43237305 15.6262207 C-22.41571846 13.88415092 -22.41571846 13.88415092 -22.39872742 12.10688782 C-21.81038613 7.5225269 -19.94941301 4.95598334 -16.7421875 1.7265625 C-11.60957456 -1.50508268 -5.83100715 -0.90377263 0 0 Z " fill="#87C8F9" transform="translate(263,0)"/>
</svg>
